<svg xmlns="http://www.w3.org/2000/svg" width="850" height="185" viewBox="0 0 850 185">
<defs>
  <style>
    @keyframes rspin3{to{transform:rotate(360deg)}}
    .radararm{animation:rspin3 10s linear infinite;transform-origin:670px 108px}
  </style>
</defs>
<rect width="850" height="185" fill="#0a0a12" rx="6"/>
<rect x="1" y="1" width="848" height="183" fill="none" stroke="#7c3aed" stroke-width="0.5" rx="5" opacity="0.4"/>
<text x="32" y="24" font-family="monospace" font-size="9" fill="#9f7edd" letter-spacing="3" opacity="0.6">LANGUAGE TELEMETRY</text>
<text x="545" y="24" font-family="monospace" font-size="9" fill="#9f7edd" letter-spacing="3" opacity="0.6">FOCUS SECTORS</text>
<line x1="32" y1="31" x2="818" y2="31" stroke="#7c3aed" stroke-width="0.5" opacity="0.25"/>
<line x1="515" y1="31" x2="515" y2="173" stroke="#7c3aed" stroke-width="0.5" opacity="0.2"/>
<text x="32" y="60" font-family="monospace" font-size="11" fill="#e2d9f3">Python</text>
<rect x="122" y="42" width="345" height="8" rx="2" fill="#7c3aed" opacity="0.12"/>
<rect x="122" y="42" width="345" height="8" rx="2" fill="#3572A5" opacity="0.75"/>
<text x="475" y="60" font-family="monospace" font-size="10" fill="#9f7edd">74.1%</text>
<text x="32" y="94" font-family="monospace" font-size="11" fill="#e2d9f3">JavaScript</text>
<rect x="122" y="76" width="345" height="8" rx="2" fill="#7c3aed" opacity="0.12"/>
<rect x="122" y="76" width="58" height="8" rx="2" fill="#f1e05a" opacity="0.75"/>
<text x="475" y="94" font-family="monospace" font-size="10" fill="#9f7edd">9.3%</text>
<text x="32" y="127" font-family="monospace" font-size="11" fill="#e2d9f3">Jupyter Notebook</text>
<rect x="122" y="110" width="345" height="8" rx="2" fill="#7c3aed" opacity="0.12"/>
<rect x="122" y="110" width="12" height="8" rx="2" fill="#888888" opacity="0.75"/>
<text x="475" y="127" font-family="monospace" font-size="10" fill="#9f7edd">1.9%</text>
<text x="32" y="161" font-family="monospace" font-size="11" fill="#e2d9f3">Shell</text>
<rect x="122" y="143" width="345" height="8" rx="2" fill="#7c3aed" opacity="0.12"/>
<rect x="122" y="143" width="1" height="8" rx="2" fill="#89e051" opacity="0.75"/>
<text x="475" y="161" font-family="monospace" font-size="10" fill="#9f7edd">0.2%</text>
<circle cx="670" cy="108" r="18" fill="none" stroke="#7c3aed" stroke-width="0.5" opacity="0.2"/>
<circle cx="670" cy="108" r="37" fill="none" stroke="#7c3aed" stroke-width="0.5" opacity="0.2"/>
<circle cx="670" cy="108" r="56" fill="none" stroke="#7c3aed" stroke-width="0.5" opacity="0.2"/>
<line x1="670" y1="108" x2="670.0" y2="52.0" stroke="#7c3aed" stroke-width="0.5" opacity="0.18"/>
<text x="670.0" y="40.0" text-anchor="middle" font-family="monospace" font-size="9" fill="#22d3ee" opacity="0.9">Languages</text>
<line x1="670" y1="108" x2="718.5" y2="136.0" stroke="#7c3aed" stroke-width="0.5" opacity="0.18"/>
<text x="732.4" y="148.0" text-anchor="middle" font-family="monospace" font-size="9" fill="#a78bfa" opacity="0.9">Cloud &amp; Infra</text>
<line x1="670" y1="108" x2="621.5" y2="136.0" stroke="#7c3aed" stroke-width="0.5" opacity="0.18"/>
<text x="607.6" y="148.0" text-anchor="middle" font-family="monospace" font-size="9" fill="#fbbf24" opacity="0.9">Frameworks</text>
<polygon points="670.0,60.4 703.9,127.6 626.4,133.2" fill="#a78bfa" fill-opacity="0.1" stroke="#a78bfa" stroke-width="0.8" opacity="0.45"/>
<line class="radararm" x1="670" y1="108" x2="670" y2="52" stroke="#22d3ee" stroke-width="1.5" opacity="0.75"/>
</svg>